<svg width="128" height="128" viewBox="0 0 128 128" fill="none" xmlns="http://www.w3.org/2000/svg">
<mask id="path-1-inside-1_1_2" fill="white">
<path d="M68 4C85.6731 4 100 18.3269 100 36V44C100 60.7853 87.0761 74.5487 70.6364 75.8894C70.2283 75.9227 69.8738 76.1927 69.7456 76.5816L64.9496 91.1212C64.6476 92.0368 63.3523 92.0369 63.0503 91.1212L58.2535 76.5815C58.1252 76.1927 57.7708 75.9226 57.3627 75.8894C40.9234 74.5483 28 60.785 28 44V36C28 18.3269 42.3269 4 60 4H68Z"/>
</mask>
<path d="M68 4C85.6731 4 100 18.3269 100 36V44C100 60.7853 87.0761 74.5487 70.6364 75.8894C70.2283 75.9227 69.8738 76.1927 69.7456 76.5816L64.9496 91.1212C64.6476 92.0368 63.3523 92.0369 63.0503 91.1212L58.2535 76.5815C58.1252 76.1927 57.7708 75.9226 57.3627 75.8894C40.9234 74.5483 28 60.785 28 44V36C28 18.3269 42.3269 4 60 4H68Z" fill="#0097B2"/>
<path d="M100 36L103 36L100 36ZM28 44L25 44L28 44ZM60 4L60 1L60 4ZM58.2535 76.5815L61.1024 75.6416L58.2535 76.5815ZM57.3627 75.8894L57.6066 72.8993L57.3627 75.8894ZM64.9496 91.1212L62.1006 90.1814L64.9496 91.1212ZM63.0503 91.1212L65.8992 90.1813L63.0503 91.1212ZM70.6364 75.8894L70.8802 78.8794L70.6364 75.8894ZM68 4V7C84.0163 7 97 19.9837 97 36L100 36L103 36C103 16.67 87.33 1 68 1V4ZM100 36H97V44H100H103V36H100ZM100 44H97C97 59.2098 85.2884 71.6846 70.3925 72.8993L70.6364 75.8894L70.8802 78.8794C88.8639 77.4129 103 62.3609 103 44H100ZM69.7456 76.5816L66.8966 75.6418L62.1006 90.1814L64.9496 91.1212L67.7986 92.0609L72.5946 77.5213L69.7456 76.5816ZM63.0503 91.1212L65.8992 90.1813L61.1024 75.6416L58.2535 76.5815L55.4045 77.5214L60.2013 92.0611L63.0503 91.1212ZM57.3627 75.8894L57.6066 72.8993C42.7112 71.6841 31 59.2095 31 44L28 44L25 44C25 62.3605 39.1356 77.4124 57.1188 78.8794L57.3627 75.8894ZM28 44H31V36H28H25V44H28ZM28 36H31C31 19.9837 43.9837 7 60 7L60 4L60 1C40.67 1 25 16.67 25 36H28ZM60 4V7H68V4V1H60V4ZM58.2535 76.5815L61.1024 75.6416C60.5832 74.0678 59.1733 73.0271 57.6066 72.8993L57.3627 75.8894L57.1188 78.8794C56.3683 78.8182 55.6671 78.3175 55.4045 77.5214L58.2535 76.5815ZM64.9496 91.1212L62.1006 90.1814C62.7046 88.3501 65.2951 88.3501 65.8992 90.1813L63.0503 91.1212L60.2013 92.0611C61.4096 95.7236 66.5905 95.7235 67.7986 92.0609L64.9496 91.1212ZM70.6364 75.8894L70.3925 72.8993C68.8258 73.0271 67.4157 74.0679 66.8966 75.6418L69.7456 76.5816L72.5946 77.5213C72.332 78.3175 71.6307 78.8182 70.8802 78.8794L70.6364 75.8894Z" fill="white" mask="url(#path-1-inside-1_1_2)"/>
<rect x="52" y="28" width="24" height="24" rx="12" fill="white"/>
</svg>
