<svg width="128" height="128" viewBox="0 0 128 128" fill="none" xmlns="http://www.w3.org/2000/svg">
<mask id="path-1-inside-1_19_38" fill="white">
<path d="M68 28C85.6731 28 100 42.3269 100 60V68C100 85.6731 85.6731 100 68 100H60C42.3269 100 28 85.6731 28 68V60C28 42.3269 42.3269 28 60 28H68Z"/>
</mask>
<path d="M68 28C85.6731 28 100 42.3269 100 60V68C100 85.6731 85.6731 100 68 100H60C42.3269 100 28 85.6731 28 68V60C28 42.3269 42.3269 28 60 28H68Z" fill="#B3B8B9"/>
<path d="M100 60L103 60L100 60ZM68 100L68 103L68 100ZM28 68L25 68L28 68ZM60 28L60 25L60 28ZM68 28V31C84.0163 31 97 43.9837 97 60L100 60L103 60C103 40.67 87.33 25 68 25V28ZM100 60H97V68H100H103V60H100ZM100 68H97C97 84.0163 84.0163 97 68 97L68 100L68 103C87.33 103 103 87.33 103 68H100ZM68 100V97H60V100V103H68V100ZM60 100V97C43.9837 97 31 84.0163 31 68L28 68L25 68C25 87.33 40.67 103 60 103V100ZM28 68H31V60H28H25V68H28ZM28 60H31C31 43.9837 43.9837 31 60 31L60 28L60 25C40.67 25 25 40.67 25 60H28ZM60 28V31H68V28V25H60V28Z" fill="white" mask="url(#path-1-inside-1_19_38)"/>
<rect x="52" y="52" width="24" height="24" rx="12" fill="white"/>
</svg>
